<svg version="1.1" id="Layer_1" xmlns:x="ns_extend;" xmlns:i="ns_ai;" xmlns:graph="ns_graphs;" xmlns="http://www.w3.org/2000/svg" xmlns:xlink="http://www.w3.org/1999/xlink" x="0px" y="0px" viewBox="0 0 187.6 89" style="enable-background:new 0 0 187.6 89;" xml:space="preserve">
 <style type="text/css">
  .st0{fill:#E32F35;}
 </style>
 <metadata>
  <sfw xmlns="ns_sfw;">
   <slices>
   </slices>
   <sliceSourceBounds bottomLeftOrigin="true" height="89" width="187.6" x="106.2" y="-244.9">
   </sliceSourceBounds>
  </sfw>
 </metadata>
 <g>
  <polygon class="st0" points="35.9,88.2 41.9,64.4 48.4,64.4 42.4,88.2 	">
  </polygon>
  <polygon class="st0" points="50.4,79.1 52,73.4 65.2,73.4 63.7,79.1 	">
  </polygon>
  <polygon class="st0" points="103.2,88.2 109.2,64.4 115.7,64.4 109.7,88.2 	">
  </polygon>
  <path class="st0" d="M15.5,89c-9.1,0-14.7-2.2-14.7-2.2l5.6-22.4h6.5l-4.5,18c0,0,4.2,1.1,8,1.1c3.7,0,8.7-1.1,8.7-1.1l1.1-4.1h6.5
		l-2.3,8.7C30.4,86.9,24.5,89,15.5,89">
  </path>
  <path class="st0" d="M90.2,88.2l1.9-7.4c-1-1.2-3.6-4.2-5.8-5.8c-2.9-2.2-6.8-4.1-7.8-4.6L74,88.2h-6.5l6-23.8H80
		c2.4,1.1,6.1,3,10.4,6.2c1.3,1,2.5,1.9,3.5,2.9l2.3-9.1h6.5l-6,23.8H90.2z">
  </path>
  <path class="st0" d="M116.2,88.1l6-23.7h6.6c2.4,1.1,6,3,10.3,6.2c1.3,1,2.5,1.9,3.5,2.9l2.3-9.1h6.5l-6,23.7h-6.5l1.9-7.4
		c-1-1.2-3.6-4.2-5.8-5.8c-2.8-2.2-6.7-4.1-7.8-4.6l-4.5,17.8H116.2z">
  </path>
  <path class="st0" d="M181.5,87c0,0-5.8,2-14.7,2c-9,0-14.6-2.2-14.6-2.2l5.2-20.9c0,0,5.7-2.1,14.7-2.1c9.1,0,14.5,2.2,14.5,2.2
		l-1.5,5.5c0,0-5.7-2.2-14-2.2c-4.1,0-8.6,1.1-8.6,1.1l-2.8,11.9c0,0,4.1,1.1,7.8,1.1c3.7,0,8.6-1.1,8.6-1.1l1-4.3
		c-2.1-0.3-4.7-0.5-7.5-0.5c-0.5,0-1.1,0-1.4,0l1-4.6c0.4,0,1.3,0,1.8,0c6.6,0,11.7,1.4,13.4,2L181.5,87z">
  </path>
  <path class="st0" d="M45.8,21.1C31,31.5,13.9,46.6,10.9,49.6h2.9c4.8,0,6.3-0.7,10.4-3.3c0.8-0.5,3.6-2.2,4.5-2.8
		c17.4-11.4,28.2-15.4,43.1-14c12.6,1.2,25.8,6.8,40.5,13.6c14.5,6.7,18.8,8.3,30.8,3.7c22.5-8.7,42.1-20.4,44.6-22.1
		c0,0-17.4-4.1-40.5-7.7c-28.4-4.4-58.1-7.2-89.3-1.5C53.1,16.6,50.4,17.8,45.8,21.1">
  </path>
  <path class="st0" d="M35.6,10.6c-6,5.7-23.7,24.9-35.6,39h6.8c1-0.9,2.1-2,3.1-3.1C25.3,31.3,43.9,14.5,72,0c0,0-11.2-0.6-23.6,2.7
		C42.9,4.2,40,6.1,35.6,10.6">
  </path>
 </g>
</svg>