<svg version="1.1" id="Layer_1" xmlns="http://www.w3.org/2000/svg" xmlns:xlink="http://www.w3.org/1999/xlink" x="0px" y="0px" viewBox="0 0 1096 151" style="enable-background:new 0 0 1096 151;" xml:space="preserve">
 <g>
  <path d="M65.3,40.3l20.4,58.4H44.9L65.3,40.3z M56.2,1L0,147.5h27.8l9.1-26.3h56.8l9.3,26.3h27.5L75,1H56.2z">
  </path>
  <path d="M183,72.2c11.3,0,19.3,7.2,25,15.8l18.9-10.9C218.5,61.5,201.6,51,183,51c-27.3,0-49.9,22.2-49.9,49.5S155.7,150,183,150
		c18.7,0,35.5-10.5,43.9-26.1L208,113.1c-5.8,8.6-13.8,15.8-25,15.8c-15.4,0-27.1-13.1-27.1-28.3C155.9,85.4,167.6,72.2,183,72.2z">
  </path>
  <path d="M369.5,91.1c3.3-12.3,13.3-19.7,25.5-19.7c12.1,0,21.8,7.6,25.1,19.7L369.5,91.1L369.5,91.1z M395,51.1
		c-27.3,0-49.1,22.2-49.1,49.5s22.6,49.5,49.9,49.5c16.6,0,31.2-7.8,40.2-20.3L419,117c-6.4,7.6-13.1,12.3-23.2,12.3
		c-13.1,0-23.4-8.8-26.5-20.7h73.9c0.4-1.8,0.8-5.3,0.8-8C444,73.2,422.3,51.1,395,51.1z">
  </path>
  <path d="M285.1,51.1c-27,0-46.4,22.2-46.4,49.5v47h22.6v-47c0-15.2,8.6-28.3,23.9-28.3c15.2,0,23.8,13.1,23.8,28.3v47h22.6v-47
		C331.5,73.2,312.1,51.1,285.1,51.1z">
  </path>
  <path d="M1083.3,96.8c-4.1-2.7-9.4-4.5-15.4-5.6c-6.8-1.2-11.1-2-13.8-3.9c-2.7-1.8-3.5-4.3-3.5-7.2c0-5.7,4.7-10.5,11.7-10.5
		s11.1,3.9,12.9,11.9l20.1-3.7c-2.7-16.6-14.2-26.9-32.8-26.9c-19.1,0-32.8,13.5-32.8,28.7c0,10.9,3.9,18,10.1,22.6
		c4.5,3.3,10.3,5.3,17.7,6.5c4.3,0.6,8.8,1.5,11.7,2.9c4.1,2.1,5.3,5.3,5.3,8.8c0,6-5.1,10.7-12.1,10.7s-12.1-3.9-12.5-13.3h-20.5
		v1.2c0,21.8,17.2,30.8,33,30.8c16,0,33.1-10.9,33.1-29.3C1095.4,110,1091.1,102,1083.3,96.8z">
  </path>
  <path d="M900,12.1h-22.8v24.2H900V12.1z">
  </path>
  <path d="M900,53.5h-22.8v94H900V53.5z">
  </path>
  <path d="M620.7,16.2h-22.8v37.3H588v21.1h9.8v44.1c0,19.5,14.2,31.2,33.7,31.2c2.5,0,5.1-0.2,7-0.6v-20.5h-1.8
		c-10.1,0-16-4.5-16-15.4V74.7h17.9V53.6h-17.9V16.2">
  </path>
  <path d="M560.9,71.4c-7.2-4.7-15.2-6.4-22.4-7.8c-6.6-1.3-13.3-2.1-19.5-6.2c-4.5-3.1-7.4-8-7.4-14.6c0-11.1,9.6-20.3,21.2-20.3
		c20.1,0,22,21.3,22,21.3l23.8-4.1C577.3,27.7,568.1,0,532.8,0c-25.5,0-45.6,19.3-45.6,42.9c0,16.6,8.2,30.2,22.4,36.7
		c9.2,4.3,16,5.1,22.4,6.6c7,1.7,11.7,2.5,15.4,5.5c4.3,3.5,6.6,9,6.6,14.4c0,11.5-9.4,20.3-21.2,20.3c-5.3,0-20.7-2.5-20.7-23.2
		h-24.6c0,38.8,33.7,45.8,45.4,45.8c25.3,0,46-19.1,46-42.9C578.8,91.1,572.4,79,560.9,71.4z">
  </path>
  <path d="M966.6,128.9c-15.4,0-27.1-13.1-27.1-28.3s11.7-28.3,27.1-28.3c15.4,0,27.1,13.1,27.1,28.3
		C993.8,115.7,982,128.9,966.6,128.9z M966.6,51.1c-27.3,0-49.9,22.2-49.9,49.5s22.6,49.5,49.9,49.5s49.9-22.2,49.9-49.5
		C1016.5,73.2,994,51.1,966.6,51.1z">
  </path>
  <path d="M726.7,100.5c0,15.2-9.6,28.3-24.3,28.3H702c-14.6,0-24.3-13.1-24.3-28.3v-47H656v47c0,27.3,20,49.5,46,49.5h0.5
		c26,0,46-22.2,46-49.5v-47h-21.7L726.7,100.5L726.7,100.5z">
  </path>
  <path d="M809.6,128.9c-15,0-27.2-12.7-27.2-28.4s12.2-28.4,27.2-28.4s27.2,12.7,27.2,28.4S824.7,128.9,809.6,128.9z M836.7,60.7
		c-11-9.8-27.1-9.6-27.1-9.6c-27.3,0-50.1,22.2-50.1,49.5s22.8,49.5,50.1,49.5c28.2,0,49.9-21.1,49.9-49.4V1h-22.8L836.7,60.7
		L836.7,60.7z">
  </path>
 </g>
</svg>